# xmcd
#
# Track frame offsets:
#	150
#	16434
#	34958
#	54246
#	69623
#	87953
#	112200
#	130587
#	150231
#	167148
#	188035
#	209739
#	223955
#	242171
#	262999
#	277258
#	292265
#	306759
#	326247
#	343327
#
# Disc length: 4783 seconds
#
# Revision: 3
# Processed by: cddbd v1.4PL0 Copyright (c) Steve Scherf et al.
# Submitted via: audiograbber 1.80
#
DISCID=4312ad14
DTITLE=Ronnie Milsap - 40 #1 Hits - Disc 2
DYEAR=1900
DGENRE=
TTITLE0=He Got You
TTITLE1=Inside
TTITLE2=Stranger In My House
TTITLE3=Don't You Know How Much I Love You
TTITLE4=Show Her
TTITLE5=Still Losing You
TTITLE6=She Keeps The Home Fires Burning
TTITLE7=Lost In The Fifties Tonight
TTITLE8=Happy, Happy Birthday Baby
TTITLE9=In Love
TTITLE10=How Do I Turn You On
TTITLE11=Snap Your Fingers
TTITLE12=Make No Mistake She's Mine
TTITLE13=Where Do The Nights Go
TTITLE14=Don't You Ever Get Tired (Of Hurting Me)
TTITLE15=A Woman In Love
TTITLE16=Stranger Things Have Happened
TTITLE17=Since I Don't Have You
TTITLE18=Livin' On Love 
TTITLE19=Time Love And Money
EXTD=
EXTT0=
EXTT1=
EXTT2=
EXTT3=
EXTT4=
EXTT5=
EXTT6=
EXTT7=
EXTT8=
EXTT9=
EXTT10=
EXTT11=
EXTT12=
EXTT13=
EXTT14=
EXTT15=
EXTT16=
EXTT17=
EXTT18=
EXTT19=
PLAYORDER=
